<?xml version="1.0" encoding="utf-8"?>
<!-- Generator: Adobe Illustrator 24.2.0, SVG Export Plug-In . SVG Version: 6.00 Build 0)  -->
<svg version="1.1" id="Capa_1" xmlns="http://www.w3.org/2000/svg" xmlns:xlink="http://www.w3.org/1999/xlink" x="0px" y="0px"
	 viewBox="0 0 1920 506" style="enable-background:new 0 0 1920 506;" xml:space="preserve">
<style type="text/css">
	.st0{fill:#F82747;}
</style>
<g>
	<path class="st0" d="M752.5,143.5c-17.3-9.2-39.6-13.9-66.3-13.9h-92.1c-7.3,0-13.7,2.7-18.7,7.9c-5,5.2-7.5,11.4-7.5,18.7v247.1
		c0,7.2,2.6,13.6,7.6,18.6h0c5,5,11.4,7.6,18.6,7.6c7.2,0,13.5-2.5,18.7-7.5c5.2-5,7.9-11.4,7.9-18.7v-78.4h65.5
		c26.8,0,49.1-4.7,66.3-13.9c17.5-9.3,30.3-21.6,38.1-36.5c7.6-14.5,11.4-30.5,11.4-47.3c0-16.8-3.8-32.7-11.4-47.3
		C782.9,165.1,770,152.9,752.5,143.5z M749.2,227.3c0,13.4-4.7,24.3-14.2,33.3c-9.6,9-27.2,13.6-52.5,13.6h-61.9v-93.8h61.9
		c25.2,0,42.9,4.6,52.5,13.6C744.6,203,749.2,213.9,749.2,227.3z"/>
	<path class="st0" d="M857.2,203.6c-7.3,0-13.7,2.7-18.7,7.9c-5,5.2-7.5,11.4-7.5,18.7v173.2c0,7.2,2.6,13.6,7.6,18.6
		c5,5,11.4,7.6,18.6,7.6c7.2,0,13.5-2.5,18.7-7.5c5.2-5,7.9-11.4,7.9-18.7V230.1c0-7.5-2.6-13.9-7.6-19
		C871.1,206.1,864.7,203.6,857.2,203.6z"/>
	<path class="st0" d="M858.8,120.8h-2.4c-7.8,0-14.6,2.8-20.2,8.4c-5.6,5.6-8.4,12.4-8.4,20.2v1.6c0,7.8,2.8,14.6,8.4,20.2
		c5.6,5.6,12.4,8.4,20.2,8.4h2.4c7.8,0,14.6-2.8,20.2-8.4c5.6-5.6,8.4-12.4,8.4-20.2v-1.6c0-7.8-2.8-14.6-8.4-20.2
		C873.4,123.6,866.6,120.8,858.8,120.8z"/>
	<path class="st0" d="M1070.6,229.3c0-6.6-2.3-12.5-6.8-17c-4.4-4.4-10.3-6.8-17-6.8h-42.5v-14.2c0-10.9,2-18.5,5.7-22
		c4-3.7,10.5-5.5,19.2-5.5c0.4,0,2.1,0.2,9.6,1.1c3.7,0.9,7.3,1.3,10.7,1.3c6.2,0,11.8-2.5,16.3-7.1c4.4-4.6,6.7-10.2,6.7-16.2
		c0-4.6-1.4-8.9-4-12.8c-2.5-3.7-5.8-6.5-9.7-8.5c-11.8-5.9-24.9-8.9-38.7-8.9c-11.4,0-22.5,2.7-32.9,7.9
		c-10.7,5.4-19.4,14.1-26,25.8c-6.4,11.5-9.7,26.2-9.7,43.7v15.4h-15.8c-6.3,0-12.1,2.3-16.6,6.7c-4.7,4.5-7.1,10.4-7.1,17.1
		c0,6.4,2.4,12.2,7,16.8c4.6,4.6,10.4,7,16.8,7h15.8v150.3c0,7.2,2.6,13.6,7.6,18.6c5,5,11.4,7.6,18.6,7.6c7.2,0,13.5-2.5,18.7-7.5
		c5.2-5,7.9-11.4,7.9-18.7V253.1h42.5c6.7,0,12.6-2.5,17.1-7.1C1068.3,241.4,1070.6,235.7,1070.6,229.3z"/>
	<path class="st0" d="M1272.3,329.8c4.8-5,7.3-11.2,7.3-18.5c0-19.4-4.1-37.7-12.1-54.2c-8.2-16.8-20.3-30.3-36-40.4
		c-15.8-10.1-34.6-15.2-56-15.2c-22.8,0-42.4,5.5-58.2,16.3c-15.7,10.8-27.6,25.1-35.1,42.6c-7.4,17.1-11.2,35.9-11.2,56.1
		c0,35.9,10.1,64.4,30,84.6c19.9,20.2,47.7,30.4,82.6,30.4c16.8,0,30.9-1.6,41.8-4.8c10.8-3.1,21.8-7.8,32.9-14.1
		c12-6.9,14.5-15.7,14.5-21.9c0-6.8-2.6-12.7-7.4-17.2c-4.7-4.3-10.5-6.5-16.7-6.5c-3.9,0-7.6,0.8-10.8,2.5
		c-7.5,3.8-15.4,6.7-23.2,8.7c-7.8,2-17.1,3-27.7,3c-19.2,0-34.1-4.6-44.4-13.7c-8.5-7.5-14.1-17.4-16.9-30H1253
		C1260.9,337.5,1267.4,334.9,1272.3,329.8z M1125.1,291.6c1.4-8,4-15,7.8-20.7c5.1-7.7,11.3-13.2,19-16.8c15.5-7.3,31.8-7.3,47.3,0
		c7.6,3.6,13.9,9.1,19.2,16.9c3.9,5.7,6.5,12.6,7.9,20.6H1125.1z"/>
	<path class="st0" d="M1468.7,213.3c-12.2-7.8-26.6-11.8-42.9-11.8c-17.5,0-32.9,3.7-45.9,11.1c-7.4,4.2-14.5,9.2-21.3,15.1
		c-0.5-6.2-3.2-11.9-7.7-16.4c-5.1-5.1-11.6-7.8-18.8-7.8c-7.3,0-13.7,2.7-18.7,7.9c-5,5.2-7.5,11.4-7.5,18.7v173.2
		c0,7.2,2.6,13.6,7.6,18.6c5,5,11.4,7.6,18.6,7.6c7.2,0,13.5-2.5,18.7-7.5c5.2-5,7.9-11.4,7.9-18.7V285
		c8.4-10.1,17.3-18.3,26.5-24.4c9.4-6.2,19.8-9.2,31.7-9.2c25.2,0,36.4,12.7,36.4,41.3v110.6c0,7.2,2.6,13.6,7.6,18.6
		c5,5,11.4,7.6,18.6,7.6c7.2,0,13.5-2.5,18.7-7.5c5.2-5,7.9-11.4,7.9-18.7V288.7c0-15.7-3.2-30.3-9.5-43.4
		C1490.2,231.8,1480.8,221.1,1468.7,213.3z"/>
	<path class="st0" d="M1716.2,203.6c-7.2,0-13.5,2.5-18.7,7.5c-5.2,5-7.9,11.4-7.9,18.7V348c-8.3,10.1-17.2,18.3-26.5,24.4
		c-9.4,6.2-19.8,9.2-31.7,9.2c-25.2,0-36.4-12.7-36.4-41.3V229.7c0-7.2-2.6-13.6-7.6-18.6c-5-5-11.4-7.6-18.6-7.6
		c-7.2,0-13.5,2.5-18.7,7.5c-5.2,5-7.9,11.4-7.9,18.7v114.7c0,15.7,3.2,30.3,9.5,43.4c6.4,13.4,15.8,24.2,27.9,32
		c12.2,7.8,26.6,11.8,42.9,11.8c17.5,0,32.9-3.7,45.9-11.1c7.4-4.2,14.5-9.2,21.3-15.1c0.5,6.2,3.2,11.9,7.7,16.4
		c5.1,5.1,11.6,7.8,18.8,7.8c7.2,0,13.7-2.7,18.7-7.9c5-5.2,7.5-11.4,7.5-18.7V229.7c0-7.2-2.6-13.6-7.6-18.6
		C1729.8,206.2,1723.3,203.6,1716.2,203.6z"/>
	<path class="st0" d="M1912.7,209.2c-4.9-5-11.2-7.7-18.5-7.7h-2c-20.1,0-38.8,8.3-55.7,24.8c-0.8-5.7-3.3-10.8-7.5-15
		c-5.1-5.1-11.6-7.8-18.8-7.8c-7.2,0-13.7,2.7-18.7,7.9c-5,5.2-7.5,11.4-7.5,18.7v173.2c0,7.2,2.6,13.6,7.6,18.6
		c5,5,11.4,7.6,18.6,7.6c7.2,0,13.5-2.5,18.7-7.5c5.2-5,7.9-11.4,7.9-18.7V283.1c6.3-9,14.1-16.3,23.1-21.6
		c9.5-5.6,20.1-8.4,31.5-8.4h2c7.4,0,13.7-2.3,18.8-7c5.1-4.7,7.8-11.1,7.8-18.4C1920,220.5,1917.6,214.3,1912.7,209.2z"/>
</g>
<path class="st0" d="M407.2,204.1c0,93.5-77.9,160-90.1,168.5c-5,3.6-10.2,6.7-15.3,9.5c-45.3,25-90.9,22.9-98.3,22.9h-4.5
	c-16.2,0-29.4-13.1-29.4-29.4v0c0-14.1,10.1-26.3,24-28.8c26.9-4.9,51-18,69.5-36.6c23.9-23.9,38.7-57,38.7-93.5v-15.5
	c0-1.3,0-2.6-0.1-3.8c0-0.3,0-0.5,0-0.8c-0.1-1.3-0.1-2.5-0.3-3.8c-0.1-1.4-0.3-2.8-0.5-4.2c-0.2-1.2-0.4-2.5-0.6-3.7
	c0-0.2,0-0.3-0.1-0.4c-3.3-17.9-11.7-34.1-23.8-46.8c-0.8-0.8-1.6-1.7-2.5-2.5c-0.3-0.3-0.7-0.6-1-1c-0.7-0.7-1.5-1.4-2.3-2.1
	l-0.2-0.2c-0.8-0.7-1.7-1.5-2.5-2.2c-1.2-0.9-2.3-1.9-3.5-2.8c-0.6-0.4-1.2-0.9-1.8-1.3c-2.2-1.5-4.4-3-6.7-4.4
	c-9.1-5.4-19.3-9.3-30.2-11.2c-0.9-0.2-1.8-0.3-2.7-0.5c-0.2-0.1-0.4-0.1-0.6-0.1c-0.6-0.1-1.1-0.2-1.7-0.2
	c-0.8-0.1-1.5-0.2-2.3-0.3c-1.5-0.2-3.1-0.3-4.7-0.3c-0.7-0.1-1.3-0.1-2-0.1c-0.9,0-1.9-0.1-2.8-0.1c-6.6,0-13,0.7-19.2,2
	c-1.2,0.2-2.3,0.5-3.4,0.8c-32.9,8.2-58.8,34-67.2,66.8c-0.4,1.5-0.7,3-1,4.5c-1.2,6-1.9,12.3-1.9,18.7v208.7
	c0,52.6-42.6,95.2-95.2,95.2h0c-11.7,0-21.3-9.5-21.3-21.3v-280c0-81.3,47.6-151.4,116.5-184.1c26.4-12.5,55.9-19.6,87.1-19.6
	C316.1,0.5,407.2,91.7,407.2,204.1z"/>
</svg>
