<?xml version="1.0" encoding="utf-8"?>
<!-- Generator: Adobe Illustrator 24.2.0, SVG Export Plug-In . SVG Version: 6.00 Build 0)  -->
<svg version="1.1" id="Capa_1" xmlns="http://www.w3.org/2000/svg" xmlns:xlink="http://www.w3.org/1999/xlink" x="0px" y="0px"
	 viewBox="0 0 407 506" style="enable-background:new 0 0 407 506;" xml:space="preserve">
<style type="text/css">
	.st0{fill:#F82747;}
</style>
<path class="st0" d="M407.2,204.1c0,93.5-77.9,160-90.1,168.5c-5,3.6-10.2,6.7-15.3,9.5c-45.3,25-90.9,22.9-98.3,22.9h-4.5
	c-16.2,0-29.4-13.1-29.4-29.4v0c0-14.1,10.1-26.3,24-28.8c26.9-4.9,51-18,69.5-36.6c23.9-23.9,38.7-57,38.7-93.5v-15.5
	c0-1.3,0-2.6-0.1-3.8c0-0.3,0-0.5,0-0.8c-0.1-1.3-0.1-2.5-0.3-3.8c-0.1-1.4-0.3-2.8-0.5-4.2c-0.2-1.2-0.4-2.5-0.6-3.7
	c0-0.2,0-0.3-0.1-0.4c-3.3-17.9-11.7-34.1-23.8-46.8c-0.8-0.8-1.6-1.7-2.5-2.5c-0.3-0.3-0.7-0.6-1-1c-0.7-0.7-1.5-1.4-2.3-2.1
	l-0.2-0.2c-0.8-0.7-1.7-1.5-2.5-2.2c-1.2-0.9-2.3-1.9-3.5-2.8c-0.6-0.4-1.2-0.9-1.8-1.3c-2.2-1.5-4.4-3-6.7-4.4
	c-9.1-5.4-19.3-9.3-30.2-11.2c-0.9-0.2-1.8-0.3-2.7-0.5c-0.2-0.1-0.4-0.1-0.6-0.1c-0.6-0.1-1.1-0.2-1.7-0.2
	c-0.8-0.1-1.5-0.2-2.3-0.3c-1.5-0.2-3.1-0.3-4.7-0.3c-0.7-0.1-1.3-0.1-2-0.1c-0.9,0-1.9-0.1-2.8-0.1c-6.6,0-13,0.7-19.2,2
	c-1.2,0.2-2.3,0.5-3.4,0.8c-32.9,8.2-58.8,34-67.2,66.8c-0.4,1.5-0.7,3-1,4.5c-1.2,6-1.9,12.3-1.9,18.7v208.7
	c0,52.6-42.6,95.2-95.2,95.2h0c-11.7,0-21.3-9.5-21.3-21.3v-280c0-81.3,47.6-151.4,116.5-184.1c26.4-12.5,55.9-19.6,87.1-19.6
	C316.1,0.5,407.2,91.7,407.2,204.1z"/>
</svg>
